<svg width="114" height="25" fill="none" xmlns="http://www.w3.org/2000/svg"><path fill-rule="evenodd" clip-rule="evenodd" d="M67.519 19.531a3.567 3.567 0 01-2.553-1.025c-.675-.674-1.132-1.698-1.134-3.082-.002-1.4.452-2.42 1.126-3.096a3.57 3.57 0 012.55-1.015c.961-.002 1.877.335 2.552 1.008.676.674 1.128 1.694 1.13 3.094.002 1.4-.448 2.42-1.122 3.096a3.568 3.568 0 01-2.55 1.016v.004zm-.017-12.692c-4.883.006-8.576 3.604-8.57 8.592.007 4.955 3.71 8.576 8.592 8.57 4.883-.007 8.577-3.638 8.57-8.593-.006-4.988-3.71-8.576-8.592-8.57zM26.92 19.702a3.568 3.568 0 01-2.552-1.025c-.676-.674-1.128-1.694-1.13-3.077-.002-1.4.452-2.425 1.122-3.096a3.573 3.573 0 012.553-1.02c.962-.001 1.877.34 2.553 1.009.675.673 1.128 1.697 1.13 3.093.002 1.4-.452 2.426-1.122 3.097a3.575 3.575 0 01-2.554 1.02zM26.903 7.01c-4.878.006-8.572 3.608-8.565 8.592.006 4.96 3.71 8.576 8.588 8.57 4.883-.006 8.576-3.637 8.57-8.592-.007-4.984-3.71-8.572-8.588-8.566l-.005-.004zm62.544 16.907l4.87-.006-.012-9.673c-.001-.802.25-1.498.689-1.987a2.488 2.488 0 011.921-.804c.878-.001 1.477.293 1.861.74.393.455.592 1.116.593 1.917l.013 9.8 4.841-.006-.013-9.673c-.001-.78.251-1.477.689-1.979a2.433 2.433 0 011.888-.812c.898-.001 1.493.293 1.873.74.389.455.583 1.116.584 1.918l.013 9.8 4.744-.007-.014-10.668c-.003-2.18-.722-3.77-1.857-4.805-1.128-1.032-2.629-1.49-4.135-1.487-1.075.001-2.057.188-2.938.632-.754.38-1.415.938-1.996 1.714-.943-1.529-2.66-2.336-4.684-2.334-1.484.002-3.191.595-4.27 1.735l-.001-1.333-4.68.006.021 16.572zM87.591 7.36l.007 4.963-.38-.075a6.182 6.182 0 00-1.206-.12c-1.033 0-1.952.255-2.61.871-.652.613-1.102 1.63-1.1 3.266l.01 7.662-4.857.006-.022-16.572 4.731-.006.002 1.602c1.166-1.41 2.984-1.69 4.126-1.692.363 0 .696.037 1.012.066l.287.03zM.021 16.048l4.748-.006.055.055a.22.22 0 01.063.139 3.369 3.369 0 001.117 2.347c.625.51 1.412.777 2.219.756a3.077 3.077 0 002.38-1.011 3.758 3.758 0 00.853-2.523l-.018-13.881 5.136-.007.018 14.025c.006 4.49-3.425 8.248-8.33 8.255-2.445.003-4.504-.808-5.948-2.219-1.41-1.377-2.252-3.345-2.293-5.74v-.19zM58.23 4.11l.27.08-.005-3.762-.127-.054A3.637 3.637 0 0057.52.15a7.608 7.608 0 00-1.21-.095c-1.674.002-3.554.561-4.527 1.562-.972.996-1.51 2.418-1.508 4.122l.001.792-2.446.004.006 4.318 2.446-.004.017 13.118 4.913-.006-.018-13.118 3.315-.005-.006-4.317-3.314.004-.001-.734c-.001-.763.264-1.206.605-1.46a2.075 2.075 0 011.24-.36c.632 0 1.003.083 1.197.138zM46.09 20.099l.253-.08.005 3.773-.118.06c-.177.084-.464.165-.797.224-.337.055-.73.094-1.138.094-1.569.002-3.332-.552-4.249-1.554-.916-.998-1.424-2.423-1.426-4.13l-.01-7.62-2.298.003-.006-4.297 2.298-.003-.006-4.656 4.609-.006.006 4.66 3.112-.004.006 4.3-3.112.005.01 7.552c0 .768.254 1.21.575 1.467.33.265.764.357 1.164.357.595-.001.94-.086 1.122-.14v-.005z" fill="#202020"/></svg>