<svg width="122" height="24" fill="none" xmlns="http://www.w3.org/2000/svg"><path d="M11.95 18.552c.88-.907 1.307-2.05 1.307-3.429 0-1.38-.425-2.52-1.308-3.394-.85-.908-1.926-1.345-3.233-1.345-1.306 0-2.383.437-3.232 1.345-.85.873-1.276 2.016-1.276 3.394 0 1.378.425 2.52 1.276 3.43.85.873 1.926 1.31 3.232 1.31 1.307 0 2.384-.437 3.233-1.31zm1.307-11.829h4.215v16.805h-4.215v-1.982C11.982 23.193 10.221 24 7.935 24c-2.188 0-4.05-.84-5.616-2.555C.785 19.715 0 17.613 0 15.126c0-2.454.783-4.57 2.319-6.285 1.566-1.73 3.428-2.588 5.616-2.588 2.285 0 4.05.807 5.322 2.454V6.723zm18.386 8.101c1.24.908 1.862 2.187 1.828 3.798 0 1.73-.62 3.058-1.894 4C30.3 23.53 28.767 24 26.907 24c-3.364 0-5.652-1.345-6.858-4l3.657-2.118c.49 1.448 1.567 2.187 3.2 2.187 1.503 0 2.253-.472 2.253-1.447 0-.708-.98-1.345-2.97-1.849l-1.863-.57c-.686-.268-1.275-.572-1.763-.941-1.208-.908-1.828-2.118-1.828-3.665 0-1.647.588-2.958 1.764-3.902 1.207-.975 2.677-1.447 4.44-1.447 2.81 0 4.865 1.177 6.204 3.563l-3.593 2.02c-.523-1.142-1.405-1.715-2.613-1.715-1.275 0-1.894.472-1.894 1.378 0 .708.98 1.345 2.972 1.849 1.534.336 2.745.84 3.625 1.478m13.39-3.932h-3.692v6.99c0 .84.326 1.345.948 1.58.457.168 1.372.201 2.745.133v3.933c-2.842.337-4.898.068-6.107-.84-1.208-.873-1.796-2.485-1.796-4.806v-6.992h-2.842V6.718h2.842V3.324l4.215-1.31v4.703h3.69l-.004 4.172zm13.42 7.561c.85-.874 1.276-1.982 1.276-3.327s-.425-2.454-1.276-3.327c-.85-.873-1.894-1.31-3.168-1.31-1.274 0-2.319.437-3.168 1.31-.817.908-1.244 2.017-1.244 3.327s.425 2.423 1.244 3.327c.401.426.892.763 1.438.99a4.262 4.262 0 001.73.32 4.262 4.262 0 001.73-.32 4.168 4.168 0 001.438-.99zm-9.307 2.992c-1.664-1.73-2.482-3.797-2.482-6.319 0-2.485.817-4.571 2.482-6.284 1.664-1.713 3.722-2.588 6.139-2.588 2.417 0 4.473.873 6.14 2.588 1.666 1.715 2.513 3.832 2.513 6.284 0 2.486-.849 4.605-2.514 6.32-1.665 1.714-3.69 2.554-6.14 2.554-2.449 0-4.472-.84-6.138-2.555zm28.867-2.89c.849-.907 1.275-2.05 1.275-3.429 0-1.38-.424-2.52-1.275-3.394-.85-.908-1.927-1.345-3.233-1.345s-2.384.437-3.265 1.345c-.85.873-1.276 2.016-1.276 3.394 0 1.378.425 2.52 1.276 3.43.881.873 1.99 1.31 3.265 1.31 1.308 0 2.383-.437 3.233-1.31zM79.286 0h4.215v23.526h-4.215v-1.982c-1.24 1.648-3.003 2.454-5.29 2.454-2.188 0-4.082-.84-5.648-2.554-1.534-1.73-2.319-3.832-2.319-6.32 0-2.453.783-4.57 2.319-6.285 1.566-1.73 3.462-2.588 5.648-2.588 2.285 0 4.05.807 5.29 2.454V0zm19.006 18.452c.85-.875 1.276-1.982 1.276-3.327s-.425-2.454-1.276-3.327c-.85-.873-1.894-1.31-3.168-1.31-1.274 0-2.319.437-3.168 1.31-.817.908-1.244 2.017-1.244 3.327s.425 2.422 1.244 3.327c.85.873 1.894 1.31 3.168 1.31a4.264 4.264 0 001.73-.321 4.169 4.169 0 001.438-.99zm-9.307 2.992c-1.664-1.73-2.482-3.797-2.482-6.32 0-2.485.815-4.57 2.482-6.283 1.666-1.714 3.722-2.588 6.139-2.588 2.417 0 4.473.873 6.139 2.588 1.667 1.714 2.514 3.832 2.514 6.284 0 2.485-.849 4.604-2.514 6.319-1.665 1.714-3.69 2.554-6.14 2.554-2.449 0-4.472-.84-6.138-2.554zM122 13.209v10.32h-4.215v-9.78c0-1.11-.293-1.951-.881-2.588-.556-.571-1.34-.875-2.351-.875-2.384 0-3.592 1.378-3.592 4.169v9.076h-4.214V6.721h4.214v1.882c1.013-1.58 2.613-2.352 4.866-2.352 1.795 0 3.265.606 4.408 1.849 1.176 1.242 1.763 2.925 1.763 5.109" fill="#202020"/></svg>