<svg width="122" height="22" fill="none" xmlns="http://www.w3.org/2000/svg"><path d="M0 21.39V.688h5.204v2.366A5.84 5.84 0 017.653.67a5.668 5.668 0 013.332-.575 6.266 6.266 0 013.058 1.075 6.46 6.46 0 012.146 2.474c2.313-2.366 4.047-3.549 6.36-3.549 4.625 0 7.516 2.366 7.516 7.69v13.606h-5.782V10.15c0-2.957-.578-4.14-2.89-4.14-2.313 0-3.47 1.183-3.47 4.14v11.24h-6.36V10.15c0-2.957-.578-4.14-2.312-4.14-1.735 0-3.47 1.183-3.47 4.14v11.24H0zM37.003 3.054A10.898 10.898 0 0142.515.19a10.755 10.755 0 016.15.635 11.032 11.032 0 014.84 3.933 11.411 11.411 0 012 5.984 10.87 10.87 0 01-.689 4.143 10.683 10.683 0 01-2.202 3.547 10.42 10.42 0 01-3.662 2.694 10.202 10.202 0 01-4.432.855 9.643 9.643 0 01-4.142-.925 9.856 9.856 0 01-3.375-2.624 10.683 10.683 0 01-2.202-3.547 10.868 10.868 0 01-.689-4.143 10.868 10.868 0 01.69-4.143 10.683 10.683 0 012.201-3.547zm7.517 13.014c1.38 0 2.703-.561 3.68-1.56a5.387 5.387 0 001.523-3.764 5.088 5.088 0 00-1.44-3.555 4.859 4.859 0 00-3.474-1.473c-1.304 0-2.554.53-3.475 1.473a5.088 5.088 0 00-1.44 3.555 5.395 5.395 0 001.315 3.57 5.166 5.166 0 003.31 1.754zm15.032 5.324V.687h5.782v2.366C66.49 1.278 68.224.095 71.116.095c4.047 0 6.938 2.958 6.938 7.69v13.606h-5.782V10.15c0-2.957-.578-4.14-2.89-4.14-2.314 0-4.048 1.183-4.048 4.14v11.24h-5.782zm43.942-18.338A10.893 10.893 0 01109.005.19a10.754 10.754 0 016.15.635 11.025 11.025 0 014.841 3.933 11.407 11.407 0 011.999 5.984 10.85 10.85 0 01-.689 4.143 10.677 10.677 0 01-2.202 3.547 10.415 10.415 0 01-3.398 2.572 10.22 10.22 0 01-4.118.977 9.63 9.63 0 01-4.457-.795 9.837 9.837 0 01-3.637-2.754 10.677 10.677 0 01-2.202-3.547 10.85 10.85 0 01-.689-4.143 10.849 10.849 0 01.689-4.143 10.677 10.677 0 012.202-3.547zm8.094 13.014a5.165 5.165 0 003.311-1.754 5.401 5.401 0 001.315-3.57 5.087 5.087 0 00-1.44-3.555 4.86 4.86 0 00-3.475-1.473 4.86 4.86 0 00-3.475 1.473 5.086 5.086 0 00-1.439 3.555c0 1.412.548 2.766 1.524 3.764a5.142 5.142 0 003.679 1.56zM82.679 21.39v-4.14l8.095-11.24h-8.095V.688h15.033V5.42l-7.516 10.648h7.516v5.324H82.679z" fill="#202020"/></svg>