<svg width="128" height="25" fill="none" xmlns="http://www.w3.org/2000/svg"><path fill-rule="evenodd" clip-rule="evenodd" d="M22.548 13.903c.668-1.499 2.07-2.52 3.919-2.523 1.85-.002 3.222.856 3.798 2.513l-7.717.01zm12.12 1.897c-.006-4.59-3.36-8.252-8.238-8.245a8.273 8.273 0 00-8.28 8.299c.006 4.59 3.455 8.283 8.43 8.277 3.445-.005 5.92-1.67 7.311-4.053l-3.467-2.06c-.734 1.41-2.143 2.285-3.818 2.287-2.296.003-3.732-1.142-4.245-2.895l12.309-.016-.002-1.594zm88.938-.117c-.003-2.358-1.728-4.269-4.087-4.266-2.423.003-4.271 1.823-4.267 4.277.003 2.455 1.855 4.301 4.278 4.298 2.36-.003 4.079-1.95 4.076-4.309zm-12.627.049c-.008-5.642 4.134-8.294 7.737-8.298 2.073-.003 3.7.76 4.754 1.874l-.012-8.893 4.369-.006.031 23.27-4.369.005-.002-1.784c-1.051 1.244-2.74 2.107-4.813 2.11-3.38.004-7.688-2.668-7.695-8.278zm-3.223-10.39a2.613 2.613 0 10-.007-5.223 2.613 2.613 0 00.007 5.222zm-2.181 2.428l4.368-.006.021 15.938-4.368.006-.016-11.698-1.585.001 1.58-4.241zm-11.638.015l4.337-.006.003 2.614c.795-1.658 2.229-2.616 4.397-2.62l1.754-.002-1.578 4.242-1.191.001c-2.327.004-3.346 1.216-3.342 4.18l.01 7.523-4.369.006-.02-15.938zm-24.57 4.336C69.357 5.49 74.357.16 81.245.15c3.445-.004 6.344 1.232 8.444 3.205a11.58 11.58 0 012.15 2.742l-3.887 2.364c-1.438-2.644-3.64-4.012-6.67-4.008-4.24.006-7.52 3.485-7.515 7.66.006 4.272 3.23 7.647 7.695 7.641 3.38-.004 5.769-1.92 6.594-4.886l-7.302.01-.005-4.24 12.085-.015.002 1.784c.008 6.249-4.449 11.641-11.368 11.65-7.27.01-12.093-5.498-12.101-11.937zm-5.262 3.64c-.003-2.358-1.727-4.269-4.087-4.266-2.423.004-4.27 1.823-4.267 4.277.003 2.455 1.855 4.301 4.279 4.298 2.36-.003 4.078-1.95 4.075-4.309zm-12.627.049c-.007-5.642 4.134-8.293 7.738-8.298 2.072-.003 3.7.76 4.754 1.874L63.958.493l4.368-.006.031 23.27-4.368.005-.003-1.784c-1.05 1.244-2.74 2.107-4.812 2.11-3.38.004-7.689-2.668-7.696-8.278zm-15.8-7.948l4.338-.006.002 1.785c1.019-1.308 2.58-2.107 4.398-2.11 3.762-.005 6.03 2.415 6.035 6.527l.013 9.722-4.433.006-.012-9.149c-.002-2.135-.993-3.377-2.938-3.375-1.658.003-3.027 1.152-3.024 3.83l.011 8.702-4.368.006-.021-15.938zM.026 19.99l4.046-3.194c1.15 1.976 2.97 3.12 5.042 3.118 2.265-.003 3.474-1.47 3.472-3.065-.002-1.912-2.331-2.515-4.82-3.277-3.125-.952-6.603-2.159-6.609-6.622C1.152 3.22 4.4.252 8.896.246c3.795-.005 5.965 1.427 7.85 3.369l-3.664 2.778c-.959-1.433-2.33-2.197-4.149-2.194-2.072.003-3.187 1.12-3.185 2.586.003 1.785 2.235 2.388 4.724 3.213 3.158 1.016 6.731 2.414 6.737 6.877.005 3.698-2.924 7.272-8.058 7.278-4.209.006-7.017-1.775-9.126-4.163z" fill="#212F38"/></svg>