<svg width="1181" height="1181" fill="none" xmlns="http://www.w3.org/2000/svg"><path d="M590.479 0A590.437 590.437 0 010 590.479 590.522 590.522 0 01590.479 0zm0 1181a590.3 590.3 0 00225.99-44.94 590.312 590.312 0 00191.581-128.01 590.312 590.312 0 00128.01-191.581 590.3 590.3 0 0044.94-225.99c-156.61.011-306.81 62.229-417.548 172.973C652.708 874.19 590.49 1024.39 590.479 1181zM0 590.479a590.47 590.47 0 0044.935 225.977 590.335 590.335 0 00127.997 191.574 590.484 590.484 0 00191.57 128.02A590.61 590.61 0 00590.479 1181c0-156.61-62.21-306.803-172.945-417.548C306.799 652.708 156.608 590.49 0 590.479zM590.479 0c.011 156.608 62.229 306.799 172.973 417.534C874.197 528.269 1024.39 590.479 1181 590.479a590.61 590.61 0 00-44.95-225.977 590.484 590.484 0 00-128.02-191.57A590.335 590.335 0 00816.456 44.935 590.47 590.47 0 00590.479 0z" fill="#6BEEDD"/></svg>