<svg width="114" height="114" fill="none" xmlns="http://www.w3.org/2000/svg"><g clip-path="url(#clip0_1326_1144)"><path d="M56.998 0A56.993 56.993 0 010 56.998 57.002 57.002 0 0156.998 0zm0 114A56.993 56.993 0 00114 56.998 57.004 57.004 0 0056.998 114zM0 56.998A56.997 56.997 0 0056.998 114 57.003 57.003 0 000 56.998zM56.998 0A57.001 57.001 0 00114 56.998a57.01 57.01 0 00-16.696-40.305A56.993 56.993 0 0056.998 0z" fill="#242528"/></g><defs><clipPath id="clip0_1326_1144"><path fill="#fff" d="M0 0h114v114H0z"/></clipPath></defs></svg>