<svg width="672" height="672" fill="none" xmlns="http://www.w3.org/2000/svg"><g clip-path="url(#clip0_387_126)"><path d="M335.988 0A335.966 335.966 0 010 335.988 336.01 336.01 0 0198.416 98.416 336.01 336.01 0 01335.988 0zm0 672a335.92 335.92 0 00128.59-25.573 335.986 335.986 0 00109.014-72.835 335.986 335.986 0 0072.835-109.014A335.92 335.92 0 00672 335.988a336.028 336.028 0 00-237.589 98.423A336.028 336.028 0 00335.988 672zM0 335.988a335.98 335.98 0 0098.4 237.593 336 336 0 00109.005 72.843A336.035 336.035 0 00335.988 672 336.01 336.01 0 000 335.988zM335.988 0A336.01 336.01 0 00672 335.988c0-44.125-8.692-87.817-25.576-128.583A336 336 0 00335.988 0z" fill="#6BEEDD"/></g><defs><clipPath id="clip0_387_126"><path fill="#fff" d="M0 0h672v672H0z"/></clipPath></defs></svg>